<svg id="Laag_1" data-name="Laag 1" xmlns="http://www.w3.org/2000/svg" viewBox="0 0 249.65 432"><defs><style>.cls-1{fill:#c40049;}</style></defs><title>Pin-racket</title><path class="cls-1" d="M260.33,126.61c-9.33-98-86.66-116-124-116-40,0-114.66,18-124,116C6.9,183.69,29,207.28,57,241.28S99,292,107.67,306.61s12,18,12,18S119,333.28,119,344v60.66c0,6.67.67,10-1.33,13.34l-2,3.33a20.69,20.69,0,0,0-2,8c0,4-1.34,13.33,16.66,13.33h12c18,0,16.67-9.33,16.67-13.33a20.69,20.69,0,0,0-2-8L155,418c-2-3.34-1.33-6.67-1.33-13.34V344c0-10.67-.67-19.34-.67-19.34s3.33-3.33,12-18,22.67-31.33,50.67-65.33S265.77,183.69,260.33,126.61Z" transform="translate(-11.51 -10.61)"/></svg>